<mxfile host="Electron" agent="Mozilla/5.0 (Windows NT 10.0; Win64; x64) AppleWebKit/537.36 (KHTML, like Gecko) draw.io/26.2.2 Chrome/134.0.6998.178 Electron/35.1.2 Safari/537.36" version="26.2.2">
  <diagram name="Page-1" id="55sZkN8YdMZ-hKlBW132">
    <mxGraphModel dx="1428" dy="824" grid="1" gridSize="10" guides="1" tooltips="1" connect="1" arrows="1" fold="1" page="1" pageScale="1" pageWidth="850" pageHeight="1100" math="0" shadow="0">
      <root>
        <mxCell id="0" />
        <mxCell id="1" parent="0" />
        <mxCell id="o2vnmsY_6hxSHBYJZXNm-13" style="rounded=0;orthogonalLoop=1;jettySize=auto;html=1;exitX=0.5;exitY=0.5;exitDx=0;exitDy=0;exitPerimeter=0;entryX=0;entryY=0.5;entryDx=0;entryDy=0;endArrow=none;startFill=0;" edge="1" parent="1" source="o2vnmsY_6hxSHBYJZXNm-1" target="o2vnmsY_6hxSHBYJZXNm-4">
          <mxGeometry relative="1" as="geometry" />
        </mxCell>
        <mxCell id="o2vnmsY_6hxSHBYJZXNm-14" style="rounded=0;orthogonalLoop=1;jettySize=auto;html=1;exitX=0.5;exitY=0.5;exitDx=0;exitDy=0;exitPerimeter=0;entryX=0;entryY=0.5;entryDx=0;entryDy=0;endArrow=none;startFill=0;" edge="1" parent="1" source="o2vnmsY_6hxSHBYJZXNm-1" target="o2vnmsY_6hxSHBYJZXNm-5">
          <mxGeometry relative="1" as="geometry" />
        </mxCell>
        <mxCell id="o2vnmsY_6hxSHBYJZXNm-15" style="rounded=0;orthogonalLoop=1;jettySize=auto;html=1;exitX=0.5;exitY=0.5;exitDx=0;exitDy=0;exitPerimeter=0;entryX=0;entryY=0.5;entryDx=0;entryDy=0;endArrow=none;startFill=0;" edge="1" parent="1" source="o2vnmsY_6hxSHBYJZXNm-1" target="o2vnmsY_6hxSHBYJZXNm-6">
          <mxGeometry relative="1" as="geometry" />
        </mxCell>
        <mxCell id="o2vnmsY_6hxSHBYJZXNm-16" style="rounded=0;orthogonalLoop=1;jettySize=auto;html=1;exitX=0.5;exitY=0.5;exitDx=0;exitDy=0;exitPerimeter=0;entryX=0;entryY=0.5;entryDx=0;entryDy=0;endArrow=none;startFill=0;" edge="1" parent="1" source="o2vnmsY_6hxSHBYJZXNm-1" target="o2vnmsY_6hxSHBYJZXNm-8">
          <mxGeometry relative="1" as="geometry" />
        </mxCell>
        <mxCell id="o2vnmsY_6hxSHBYJZXNm-17" style="rounded=0;orthogonalLoop=1;jettySize=auto;html=1;exitX=0.5;exitY=0.5;exitDx=0;exitDy=0;exitPerimeter=0;entryX=0;entryY=0.5;entryDx=0;entryDy=0;endArrow=none;startFill=0;" edge="1" parent="1" source="o2vnmsY_6hxSHBYJZXNm-1" target="o2vnmsY_6hxSHBYJZXNm-10">
          <mxGeometry relative="1" as="geometry" />
        </mxCell>
        <mxCell id="o2vnmsY_6hxSHBYJZXNm-18" style="rounded=0;orthogonalLoop=1;jettySize=auto;html=1;exitX=0.5;exitY=0.5;exitDx=0;exitDy=0;exitPerimeter=0;entryX=0;entryY=0.5;entryDx=0;entryDy=0;endArrow=none;startFill=0;" edge="1" parent="1" source="o2vnmsY_6hxSHBYJZXNm-1" target="o2vnmsY_6hxSHBYJZXNm-12">
          <mxGeometry relative="1" as="geometry" />
        </mxCell>
        <mxCell id="o2vnmsY_6hxSHBYJZXNm-1" value="Pelanggan" style="shape=umlActor;verticalLabelPosition=bottom;verticalAlign=top;html=1;outlineConnect=0;" vertex="1" parent="1">
          <mxGeometry x="150" y="320" width="30" height="60" as="geometry" />
        </mxCell>
        <mxCell id="o2vnmsY_6hxSHBYJZXNm-19" style="rounded=0;orthogonalLoop=1;jettySize=auto;html=1;exitX=0.5;exitY=0.5;exitDx=0;exitDy=0;exitPerimeter=0;entryX=1;entryY=0.5;entryDx=0;entryDy=0;endArrow=none;startFill=0;" edge="1" parent="1" source="o2vnmsY_6hxSHBYJZXNm-3" target="o2vnmsY_6hxSHBYJZXNm-5">
          <mxGeometry relative="1" as="geometry" />
        </mxCell>
        <mxCell id="o2vnmsY_6hxSHBYJZXNm-20" style="rounded=0;orthogonalLoop=1;jettySize=auto;html=1;exitX=0.5;exitY=0.5;exitDx=0;exitDy=0;exitPerimeter=0;entryX=1;entryY=0.5;entryDx=0;entryDy=0;endArrow=none;startFill=0;" edge="1" parent="1" source="o2vnmsY_6hxSHBYJZXNm-3" target="o2vnmsY_6hxSHBYJZXNm-6">
          <mxGeometry relative="1" as="geometry" />
        </mxCell>
        <mxCell id="o2vnmsY_6hxSHBYJZXNm-21" style="rounded=0;orthogonalLoop=1;jettySize=auto;html=1;exitX=0.5;exitY=0.5;exitDx=0;exitDy=0;exitPerimeter=0;entryX=1;entryY=0.5;entryDx=0;entryDy=0;endArrow=none;startFill=0;" edge="1" parent="1" source="o2vnmsY_6hxSHBYJZXNm-3" target="o2vnmsY_6hxSHBYJZXNm-7">
          <mxGeometry relative="1" as="geometry" />
        </mxCell>
        <mxCell id="o2vnmsY_6hxSHBYJZXNm-22" style="rounded=0;orthogonalLoop=1;jettySize=auto;html=1;exitX=0.5;exitY=0.5;exitDx=0;exitDy=0;exitPerimeter=0;entryX=1;entryY=0.5;entryDx=0;entryDy=0;endArrow=none;startFill=0;" edge="1" parent="1" source="o2vnmsY_6hxSHBYJZXNm-3" target="o2vnmsY_6hxSHBYJZXNm-9">
          <mxGeometry relative="1" as="geometry" />
        </mxCell>
        <mxCell id="o2vnmsY_6hxSHBYJZXNm-23" style="rounded=0;orthogonalLoop=1;jettySize=auto;html=1;exitX=0.5;exitY=0.5;exitDx=0;exitDy=0;exitPerimeter=0;entryX=1;entryY=0.5;entryDx=0;entryDy=0;endArrow=none;startFill=0;" edge="1" parent="1" source="o2vnmsY_6hxSHBYJZXNm-3" target="o2vnmsY_6hxSHBYJZXNm-11">
          <mxGeometry relative="1" as="geometry" />
        </mxCell>
        <mxCell id="o2vnmsY_6hxSHBYJZXNm-24" style="rounded=0;orthogonalLoop=1;jettySize=auto;html=1;exitX=0.5;exitY=0.5;exitDx=0;exitDy=0;exitPerimeter=0;entryX=1;entryY=0.5;entryDx=0;entryDy=0;endArrow=none;startFill=0;" edge="1" parent="1" source="o2vnmsY_6hxSHBYJZXNm-3" target="o2vnmsY_6hxSHBYJZXNm-12">
          <mxGeometry relative="1" as="geometry" />
        </mxCell>
        <mxCell id="o2vnmsY_6hxSHBYJZXNm-3" value="Penggelola" style="shape=umlActor;verticalLabelPosition=bottom;verticalAlign=top;html=1;outlineConnect=0;" vertex="1" parent="1">
          <mxGeometry x="590" y="320" width="30" height="60" as="geometry" />
        </mxCell>
        <mxCell id="o2vnmsY_6hxSHBYJZXNm-4" value="Register" style="ellipse;whiteSpace=wrap;html=1;" vertex="1" parent="1">
          <mxGeometry x="340" y="40" width="120" height="50" as="geometry" />
        </mxCell>
        <mxCell id="o2vnmsY_6hxSHBYJZXNm-5" value="Login" style="ellipse;whiteSpace=wrap;html=1;" vertex="1" parent="1">
          <mxGeometry x="340" y="120" width="120" height="50" as="geometry" />
        </mxCell>
        <mxCell id="o2vnmsY_6hxSHBYJZXNm-6" value="Melihat Menu" style="ellipse;whiteSpace=wrap;html=1;" vertex="1" parent="1">
          <mxGeometry x="340" y="200" width="120" height="50" as="geometry" />
        </mxCell>
        <mxCell id="o2vnmsY_6hxSHBYJZXNm-7" value="Mengelola Menu" style="ellipse;whiteSpace=wrap;html=1;" vertex="1" parent="1">
          <mxGeometry x="340" y="280" width="120" height="50" as="geometry" />
        </mxCell>
        <mxCell id="o2vnmsY_6hxSHBYJZXNm-8" value="Melakukan Pembayaran QR" style="ellipse;whiteSpace=wrap;html=1;" vertex="1" parent="1">
          <mxGeometry x="340" y="360" width="120" height="50" as="geometry" />
        </mxCell>
        <mxCell id="o2vnmsY_6hxSHBYJZXNm-9" value="Memproses Pembayaran" style="ellipse;whiteSpace=wrap;html=1;" vertex="1" parent="1">
          <mxGeometry x="340" y="440" width="120" height="50" as="geometry" />
        </mxCell>
        <mxCell id="o2vnmsY_6hxSHBYJZXNm-10" value="Memberikan Umpan Balik" style="ellipse;whiteSpace=wrap;html=1;" vertex="1" parent="1">
          <mxGeometry x="340" y="520" width="120" height="50" as="geometry" />
        </mxCell>
        <mxCell id="o2vnmsY_6hxSHBYJZXNm-11" value="Melihat Laporan Transaksi" style="ellipse;whiteSpace=wrap;html=1;" vertex="1" parent="1">
          <mxGeometry x="340" y="600" width="120" height="50" as="geometry" />
        </mxCell>
        <mxCell id="o2vnmsY_6hxSHBYJZXNm-12" value="Logout" style="ellipse;whiteSpace=wrap;html=1;" vertex="1" parent="1">
          <mxGeometry x="340" y="680" width="120" height="50" as="geometry" />
        </mxCell>
        <mxCell id="o2vnmsY_6hxSHBYJZXNm-25" value="&amp;lt;&amp;lt;extend&amp;gt;&amp;gt;" style="html=1;verticalAlign=bottom;labelBackgroundColor=none;endArrow=open;endFill=0;dashed=1;rounded=0;entryX=0.5;entryY=1;entryDx=0;entryDy=0;" edge="1" parent="1" target="o2vnmsY_6hxSHBYJZXNm-6">
          <mxGeometry x="-1" width="160" relative="1" as="geometry">
            <mxPoint x="400" y="270" as="sourcePoint" />
            <mxPoint x="510" y="420" as="targetPoint" />
            <mxPoint as="offset" />
          </mxGeometry>
        </mxCell>
        <mxCell id="o2vnmsY_6hxSHBYJZXNm-27" value="&amp;lt;&amp;lt;include&amp;gt;&amp;gt;" style="html=1;verticalAlign=bottom;labelBackgroundColor=none;endArrow=open;endFill=0;dashed=1;rounded=0;exitX=0;exitY=0.5;exitDx=0;exitDy=0;entryX=0;entryY=0.5;entryDx=0;entryDy=0;" edge="1" parent="1" source="o2vnmsY_6hxSHBYJZXNm-8" target="o2vnmsY_6hxSHBYJZXNm-10">
          <mxGeometry width="160" relative="1" as="geometry">
            <mxPoint x="350" y="420" as="sourcePoint" />
            <mxPoint x="510" y="420" as="targetPoint" />
            <Array as="points">
              <mxPoint x="290" y="385" />
              <mxPoint x="290" y="545" />
            </Array>
          </mxGeometry>
        </mxCell>
        <mxCell id="o2vnmsY_6hxSHBYJZXNm-28" value="Use Case Diagram" style="swimlane;whiteSpace=wrap;html=1;" vertex="1" parent="1">
          <mxGeometry x="230" y="10" width="320" height="750" as="geometry" />
        </mxCell>
      </root>
    </mxGraphModel>
  </diagram>
</mxfile>
